<svg width="232" height="220" viewBox="0 0 232 220" fill="none" xmlns="http://www.w3.org/2000/svg">
<path fill-rule="evenodd" clip-rule="evenodd" d="M78.7865 150.95C79.0169 150.143 77.9777 149.58 77.4267 150.215C61.3876 168.708 50.6957 184.483 45.0648 194.783C44.2354 196.3 42.3503 196.915 40.8016 196.136L1.7228 176.465C0.177657 175.687 -0.45785 173.834 0.355255 172.313C19.9211 135.703 80.2892 59.0119 186.092 0.394317C187.538 -0.406385 189.373 0.047784 190.263 1.43537L213.995 38.4381C214.885 39.8254 214.539 41.6592 213.225 42.6594C202.247 51.0198 187.607 64.4006 173.209 81.5321C172.62 82.2322 173.522 83.1905 174.274 82.6679C185.307 74.9991 197.147 68.0371 209.745 62.2254C211.317 61.5 213.173 62.2098 213.879 63.785L231.727 103.611C232.433 105.187 231.72 107.031 230.151 107.764C202.676 120.593 178.427 141.261 158.918 162.959C139.855 184.161 126.327 205.219 119.499 218.282C118.832 219.559 117.394 220.239 115.983 219.923L73.3699 210.4C71.9631 210.085 70.9496 208.857 70.9357 207.422C70.7445 187.691 73.7006 168.771 78.7865 150.95Z" fill="#F7F9FC"/>
</svg>
