<svg class="emailIcon" width="28" height="28" viewBox="0 0 28 28" fill="none" xmlns="http://www.w3.org/2000/svg"><path d="M7.17007 5.08248L22.0241 7.17008C22.243 7.20084 22.4406 7.31728 22.5736 7.49379C22.7067 7.6703 22.7641 7.89242 22.7333 8.11128L20.8777 21.3149C20.8469 21.5337 20.7305 21.7314 20.554 21.8644C20.3775 21.9974 20.1554 22.0549 19.9365 22.0241L5.08248 19.9365C4.86361 19.9057 4.66593 19.7893 4.53292 19.6128C4.39991 19.4363 4.34247 19.2142 4.37323 18.9953L6.22887 5.79173C6.25963 5.57287 6.37607 5.37519 6.55258 5.24218C6.72909 5.10917 6.95121 5.05173 7.17007 5.08248V5.08248ZM13.6396 13.2987L8.97973 8.06167L7.73431 9.16912L13.3448 15.4738L20.3616 10.9396L19.4577 9.5393L13.6404 13.2988L13.6396 13.2987Z" fill="#B3B8D0"/></svg>