<svg width="24" height="24" viewBox="0 0 24 24" fill="none" xmlns="http://www.w3.org/2000/svg"><path d="M16.7142 14.3567L15.5358 13.1784L16.7142 12.0001C17.0237 11.6905 17.2692 11.3231 17.4368 10.9186C17.6043 10.5142 17.6905 10.0807 17.6905 9.643C17.6905 9.20525 17.6043 8.77178 17.4368 8.36735C17.2692 7.96292 17.0237 7.59545 16.7142 7.28591C16.4046 6.97638 16.0372 6.73084 15.6327 6.56332C15.2283 6.3958 14.7948 6.30958 14.3571 6.30958C13.9193 6.30958 13.4859 6.3958 13.0814 6.56332C12.677 6.73084 12.3095 6.97638 12 7.28591L10.8217 8.46425L9.64334 7.28591L10.8217 6.10758C11.7619 5.18251 13.0296 4.66646 14.3487 4.67183C15.6677 4.6772 16.9311 5.20356 17.8638 6.13626C18.7965 7.06895 19.3229 8.33241 19.3283 9.65143C19.3336 10.9704 18.8176 12.2382 17.8925 13.1784L16.7142 14.3567ZM14.3567 16.7142L13.1783 17.8926C12.7154 18.3631 12.164 18.7373 11.5557 18.9936C10.9475 19.2499 10.2945 19.3832 9.63449 19.3859C8.97446 19.3886 8.32043 19.2606 7.71012 19.0092C7.09981 18.7579 6.54531 18.3882 6.0786 17.9215C5.61188 17.4548 5.24219 16.9003 4.99085 16.29C4.7395 15.6797 4.61148 15.0256 4.61417 14.3656C4.61686 13.7056 4.7502 13.0526 5.0065 12.4444C5.26281 11.8361 5.637 11.2846 6.1075 10.8217L7.28584 9.64341L8.46417 10.8217L7.28584 12.0001C6.9763 12.3096 6.73076 12.6771 6.56324 13.0815C6.39572 13.4859 6.3095 13.9194 6.3095 14.3572C6.3095 14.7949 6.39572 15.2284 6.56324 15.6328C6.73076 16.0372 6.9763 16.4047 7.28584 16.7142C7.59537 17.0238 7.96285 17.2693 8.36728 17.4368C8.77171 17.6044 9.20517 17.6906 9.64292 17.6906C10.0807 17.6906 10.5141 17.6044 10.9186 17.4368C11.323 17.2693 11.6905 17.0238 12 16.7142L13.1783 15.5359L14.3567 16.7142ZM14.3567 8.46425L15.5358 9.64341L9.64334 15.5351L8.46417 14.3567L14.3567 8.46508V8.46425ZM6.8125 3.91091L8.4225 3.47925L9.285 6.70008L7.67584 7.13175L6.8125 3.91175V3.91091ZM14.715 17.3009L16.3242 16.8692L17.1875 20.0892L15.5775 20.5209L14.715 17.3009ZM3.91084 6.81258L7.13084 7.67591L6.69917 9.28508L3.47917 8.42258L3.91084 6.81258ZM17.3008 14.7151L20.5208 15.5776L20.0892 17.1876L16.8692 16.3242L17.3008 14.7151Z" fill="#0E0B3D"/></svg>