<svg width="24" height="24" viewBox="0 0 24 24" fill="none" xmlns="http://www.w3.org/2000/svg">
<path d="M7.83333 7.00033V4.50033C7.83333 4.27931 7.92113 4.06735 8.07741 3.91107C8.23369 3.75479 8.44565 3.66699 8.66667 3.66699H18.6667C18.8877 3.66699 19.0996 3.75479 19.2559 3.91107C19.4122 4.06735 19.5 4.27931 19.5 4.50033V16.167C19.5 16.388 19.4122 16.6 19.2559 16.7562C19.0996 16.9125 18.8877 17.0003 18.6667 17.0003H16.1667V19.5003C16.1667 19.9603 15.7917 20.3337 15.3275 20.3337H5.33917C5.22927 20.3343 5.12033 20.3133 5.0186 20.2717C4.91687 20.2301 4.82436 20.1688 4.74638 20.0914C4.6684 20.014 4.60649 19.9219 4.56421 19.8205C4.52193 19.719 4.50011 19.6102 4.5 19.5003L4.5025 7.83366C4.5025 7.37366 4.8775 7.00033 5.34167 7.00033H7.83333ZM9.5 7.00033H16.1667V15.3337H17.8333V5.33366H9.5V7.00033Z" fill="#0E0B3D"/>
</svg>
