<svg width="16" height="16" viewBox="0 0 16 16" fill="none" xmlns="http://www.w3.org/2000/svg"><path d="M5.22222 4.66656V2.99989C5.22222 2.85255 5.28075 2.71124 5.38494 2.60705C5.48913 2.50287 5.63044 2.44434 5.77778 2.44434H12.4444C12.5918 2.44434 12.7331 2.50287 12.8373 2.60705C12.9415 2.71124 13 2.85255 13 2.99989V10.7777C13 10.925 12.9415 11.0663 12.8373 11.1705C12.7331 11.2747 12.5918 11.3332 12.4444 11.3332H10.7778V12.9999C10.7778 13.3066 10.5278 13.5554 10.2183 13.5554H3.55944C3.48618 13.5559 3.41355 13.5418 3.34573 13.5141C3.27792 13.4864 3.21624 13.4456 3.16425 13.3939C3.11227 13.3423 3.071 13.2809 3.04281 13.2133C3.01462 13.1457 3.00007 13.0732 3 12.9999L3.00167 5.22211C3.00167 4.91545 3.25167 4.66656 3.56111 4.66656H5.22222ZM6.33333 4.66656H10.7778V10.2221H11.8889V3.55545H6.33333V4.66656Z" fill="white"/></svg>