<svg width="522" height="525" viewBox="0 0 522 525" fill="none" xmlns="http://www.w3.org/2000/svg">
<path fill-rule="evenodd" clip-rule="evenodd" d="M434.166 100.246C434.822 107.443 440.876 112.932 448.119 113.031C535.669 114.236 610.795 128.297 660.247 143.062C666.544 144.942 670.511 151.054 669.857 157.585L654.936 306.763C654.229 313.828 658.939 320.271 665.855 321.915C674.799 324.04 683.689 326.361 692.519 328.881C699.961 331.004 704.069 338.862 701.752 346.242L634.616 560.035C632.299 567.415 624.439 571.512 616.961 569.514C490.059 535.608 325.796 566.649 189.997 672.377C184.522 676.64 176.748 676.463 171.621 671.814L4.96226 520.699C-0.164782 516.05 -1.12715 508.348 2.87042 502.682C26.5272 469.154 61.8883 427.539 107.998 384.488C113.698 379.166 114.105 370.248 108.816 364.545L12.3069 260.495C7.75848 255.591 7.30785 248.152 11.4042 242.846C42.4158 202.676 92.578 150.815 156.145 105.333C221.597 58.5043 309.044 12.9019 410.967 0.239104C418.656 -0.716085 425.488 4.96042 426.189 12.655L434.166 100.246Z" fill="#171531"/>
</svg>
