<svg width="24" height="24" viewBox="0 0 24 24" fill="none" xmlns="http://www.w3.org/2000/svg"><path d="M4.49996 4.5H19.5C19.721 4.5 19.9329 4.5878 20.0892 4.74408C20.2455 4.90036 20.3333 5.11232 20.3333 5.33333V18.6667C20.3333 18.8877 20.2455 19.0996 20.0892 19.2559C19.9329 19.4122 19.721 19.5 19.5 19.5H4.49996C4.27895 19.5 4.06698 19.4122 3.9107 19.2559C3.75442 19.0996 3.66663 18.8877 3.66663 18.6667L3.66663 5.33333C3.66663 5.11232 3.75442 4.90036 3.9107 4.74408C4.06698 4.5878 4.27895 4.5 4.49996 4.5V4.5ZM12.05 11.7358L6.70663 7.19833L5.62746 8.46833L12.0608 13.9308L18.3783 8.46417L17.2883 7.20333L12.0508 11.7358H12.05Z" fill="#B3B8D0"/></svg>