<svg width="19" height="16" viewBox="0 0 19 16" fill="none" xmlns="http://www.w3.org/2000/svg">
<path d="M8.31393 1.43935L9.00226 2.12963L9.6906 1.4413C10.1413 0.986723 10.6774 0.625653 11.2681 0.378817C11.8587 0.131982 12.4923 0.00424157 13.1325 0.00293104C13.7727 0.00162051 14.4068 0.126765 14.9984 0.37118C15.5901 0.615596 16.1277 0.974468 16.5803 1.42719C17.0329 1.87992 17.3916 2.41758 17.6358 3.00932C17.8801 3.60105 18.005 4.2352 18.0036 4.87536C18.0021 5.51552 17.8741 6.14908 17.6271 6.73967C17.3801 7.33026 17.0189 7.86624 16.5642 8.31685L9.00226 15.8769L1.43838 8.31297C0.983801 7.86223 0.622731 7.32614 0.375895 6.73548C0.12906 6.14482 0.00132072 5.51122 1.01873e-05 4.87106C-0.00130034 4.2309 0.123845 3.59679 0.36826 3.00513C0.612675 2.41346 0.971545 1.8759 1.42427 1.4233C1.877 0.970703 2.41466 0.611982 3.0064 0.367735C3.59813 0.123487 4.23228 -0.0014784 4.87244 1.31969e-05C5.5126 0.00150479 6.14616 0.129424 6.73674 0.376426C7.32733 0.623429 7.86332 0.984651 8.31393 1.43935Z" fill="#FFC933"/>
</svg>
