<svg width="60" height="24" viewBox="0 0 60 24" fill="none" xmlns="http://www.w3.org/2000/svg"><path d="M40.9997 5.01472C40.4275 5.01141 39.8603 5.12109 39.3306 5.33745C38.8008 5.55382 38.319 5.87263 37.9128 6.27559L37.7099 5.27559H34.2461V24.0002L38.1881 23.1451V18.6089C38.9722 19.2655 39.9626 19.6247 40.9852 19.6234C43.7968 19.6234 46.3765 17.3191 46.3765 12.2176C46.3765 7.55095 43.7678 5.01472 40.9997 5.01472ZM40.0577 16.0727C39.7119 16.0926 39.3661 16.0353 39.0452 15.905C38.7243 15.7746 38.4365 15.5745 38.2026 15.3191V9.36254C38.4375 9.09779 38.7285 8.88882 39.0545 8.75092C39.3805 8.61301 39.7331 8.54965 40.0867 8.56544C41.536 8.56544 42.5215 10.2031 42.5215 12.3046C42.5215 14.406 41.5215 16.0727 40.0577 16.0727Z" fill="#635BFF"/><path d="M53.6522 5.01465C49.8551 5.01465 47.5508 8.29001 47.5508 12.4204C47.5508 17.3045 50.2754 19.7828 54.1595 19.7828C55.6753 19.8075 57.1723 19.4432 58.5073 18.7248V15.4639C57.2949 16.0757 55.9521 16.384 54.5943 16.3625C53.029 16.3625 51.6957 15.7972 51.4928 13.8987H59.2899C59.2899 13.6813 59.2899 12.8262 59.2899 12.4494C59.4203 8.29001 57.4493 5.01465 53.6522 5.01465ZM51.5218 10.9132C51.5218 9.08711 52.6377 8.31899 53.6232 8.31899C54.6088 8.31899 55.6522 9.08711 55.6522 10.9132H51.5218Z" fill="#635BFF"/><path d="M23.6087 6.36227L23.3623 5.17387H20V19.2463H23.8841V9.7101C24.2348 9.28422 24.7072 8.97555 25.2382 8.82534C25.7691 8.67513 26.3332 8.69055 26.8551 8.86952V5.17387C26.2621 4.9416 25.6047 4.93422 25.0068 5.15312C24.4088 5.37203 23.9115 5.8021 23.6087 6.36227V6.36227Z" fill="#635BFF"/><path d="M3.9855 9.40557C3.9855 8.76789 4.50724 8.52151 5.33333 8.52151C6.70242 8.55098 8.04439 8.90884 9.24637 9.56499V5.7534C8.00366 5.25093 6.6737 4.99971 5.33333 5.01427C2.13043 5.01427 0 6.72441 0 9.59398C0 14.0867 5.99999 13.3621 5.99999 15.2896C5.99999 16.0432 5.36231 16.2896 4.55072 16.2896C3.01951 16.2001 1.53051 15.7534 0.202898 14.9853V18.8838C1.57121 19.4941 3.05248 19.8101 4.55072 19.8114C7.82608 19.8114 10.0869 18.1447 10.0869 15.2317C10.0145 10.3621 3.9855 11.2317 3.9855 9.40557Z" fill="#635BFF"/><path d="M15.3188 1.84082L11.4782 2.6814V15.6234C11.4584 16.1688 11.5501 16.7126 11.7475 17.2214C11.9449 17.7302 12.2441 18.1934 12.6266 18.5827C13.0091 18.972 13.467 19.2792 13.9722 19.4855C14.4775 19.6919 15.0195 19.793 15.5652 19.7828C16.5173 19.8254 17.466 19.6416 18.3333 19.2466V15.9857C17.8261 16.2031 15.3478 16.9423 15.3478 14.5365V8.73937H18.3333V5.34806H15.3478L15.3188 1.84082Z" fill="#635BFF"/><path d="M28.3188 3.95652L32.2753 3.13043V0L28.3188 0.826086V3.95652Z" fill="#635BFF"/><path d="M32.2753 5.2749H28.3188V19.2459H32.2753V5.2749Z" fill="#635BFF"/></svg>