<svg width="45" height="26" viewBox="0 0 45 26" fill="none" xmlns="http://www.w3.org/2000/svg">
<path d="M17.4236 6.37881L21.627 6.74656C23.9388 6.94881 26.0756 8.06115 27.5672 9.83887C29.0589 11.6166 29.7833 13.9141 29.5811 16.2259L16.0198 15.0394L15.8523 16.9766L31.3486 18.3324L31.5181 16.3953C31.6923 14.3337 31.2732 12.2653 30.3103 10.4341L35.9006 10.9231C37.7317 11.0828 39.4799 11.7583 40.9427 12.8712C42.4055 13.9841 43.5228 15.4889 44.1651 17.211C39.0551 22.8557 31.2945 26.1351 22.9226 25.4027C17.5744 24.9348 13.1436 23.3955 9.63865 21.0687L11.2154 3.04644C13.5425 3.5902 15.6843 4.73987 17.4236 6.37881ZM7.52281 0.63292C7.99725 0.674491 8.43993 0.888742 8.7669 1.23503C9.09386 1.58132 9.28236 2.03557 9.29665 2.51162L9.29038 2.73944L7.76516 20.1728C7.72021 20.6866 7.47302 21.1614 7.07797 21.4929C6.68293 21.8244 6.17238 21.9854 5.65864 21.9404L1.78455 21.6015C1.27081 21.5565 0.795974 21.3093 0.464489 20.9143C0.133004 20.5193 -0.0279713 20.0087 0.0169749 19.495L1.5422 2.06156C1.58715 1.54782 1.83433 1.07298 2.22938 0.741496C2.62443 0.410011 3.13498 0.249035 3.64872 0.293981L7.52281 0.63292Z" fill="#FFC933"/>
</svg>
