<svg width="16" height="18" viewBox="0 0 16 18" fill="none" xmlns="http://www.w3.org/2000/svg"><path d="M7.63769 5.26173C6.13298 5.26192 4.63101 5.13307 3.14832 4.8766C3.10782 4.86953 3.06915 4.85446 3.03453 4.83229C2.99992 4.81011 2.97007 4.78127 2.94672 4.74745C2.92337 4.71362 2.90698 4.67548 2.89852 4.63526C2.89005 4.59503 2.88968 4.55353 2.89741 4.51316L3.47046 1.4249C3.48602 1.34576 3.53183 1.27581 3.59816 1.22992C3.66449 1.18403 3.7461 1.16582 3.82565 1.17916C6.44962 1.62502 9.13148 1.60685 11.7492 1.12547C12.5052 0.985632 13.2532 0.805023 13.9897 0.584435C14.0678 0.561891 14.1515 0.570902 14.223 0.609528C14.2944 0.648153 14.3479 0.713301 14.3718 0.790938L15.3186 3.78523C15.3311 3.82447 15.3358 3.86583 15.3321 3.90687C15.3285 3.94792 15.3168 3.98783 15.2975 4.02428C15.2783 4.06072 15.252 4.09296 15.2201 4.1191C15.1883 4.14525 15.1516 4.16478 15.1121 4.17656C14.2318 4.44046 13.3376 4.65589 12.4337 4.82188C10.8518 5.11474 9.24645 5.26198 7.63769 5.26173Z" fill="white"/><path d="M7.6377 11.3093C5.75823 11.3102 3.88226 11.1472 2.03114 10.822C1.99054 10.8149 1.95176 10.7998 1.91707 10.7776C1.88238 10.7553 1.85248 10.7264 1.82911 10.6925C1.80575 10.6585 1.78939 10.6203 1.781 10.5799C1.77261 10.5396 1.77235 10.498 1.78024 10.4575L2.35948 7.37029C2.37503 7.29094 2.421 7.22082 2.48756 7.1749C2.55412 7.12899 2.63599 7.11092 2.7157 7.12456C5.97307 7.68933 9.30335 7.68933 12.5607 7.12456C12.6403 7.11121 12.7219 7.12942 12.7882 7.17531C12.8545 7.2212 12.9004 7.29115 12.9159 7.37029L13.4952 10.4575C13.5031 10.4979 13.5028 10.5394 13.4945 10.5797C13.4862 10.62 13.4699 10.6582 13.4466 10.6922C13.4234 10.7261 13.3936 10.755 13.359 10.7773C13.3245 10.7996 13.2858 10.8148 13.2453 10.822C11.3938 11.1471 9.51751 11.3102 7.6377 11.3093Z" fill="#DDE0EE"/><path d="M7.32484 17.3473C5.17821 17.33 3.03682 17.1324 0.923249 16.7567C0.882757 16.7497 0.844078 16.7346 0.809467 16.7124C0.774856 16.6902 0.745004 16.6614 0.721651 16.6276C0.698299 16.5938 0.681913 16.5556 0.673448 16.5154C0.664983 16.4752 0.664609 16.4337 0.672348 16.3933L1.24849 13.3061C1.26497 13.2283 1.31071 13.1599 1.37625 13.1149C1.44179 13.0699 1.5221 13.0519 1.60058 13.0645C3.49317 13.3987 5.41026 13.5752 7.33207 13.5921C7.37275 13.5921 7.41303 13.6001 7.45061 13.6157C7.48819 13.6312 7.52234 13.654 7.5511 13.6828C7.57986 13.7116 7.60268 13.7457 7.61825 13.7833C7.63381 13.8209 7.64182 13.8612 7.64182 13.9018V17.0427C7.64115 17.0836 7.63241 17.1239 7.61609 17.1614C7.59977 17.1988 7.5762 17.2327 7.54673 17.261C7.51727 17.2893 7.48249 17.3115 7.44441 17.3263C7.40633 17.3412 7.36569 17.3483 7.32484 17.3473Z" fill="#6C6F93"/></svg>