<svg width="38" height="38" viewBox="0 0 38 38" fill="none" xmlns="http://www.w3.org/2000/svg"><path d="M19 38C8.5063 38 0 29.4937 0 19C0 8.5063 8.5063 0 19 0C29.4937 0 38 8.5063 38 19C38 29.4937 29.4937 38 19 38Z" fill="#7214FF"/><path d="M12.1944 22.8886V26.7775H17.0556V30.6663H20.9444V26.7775H22.8889C24.1781 26.7775 25.4146 26.2653 26.3262 25.3537C27.2378 24.442 27.75 23.2056 27.75 21.9163C27.75 20.6271 27.2378 19.3907 26.3262 18.479C25.4146 17.5674 24.1781 17.0552 22.8889 17.0552H15.1111C14.8533 17.0552 14.606 16.9528 14.4236 16.7705C14.2413 16.5881 14.1389 16.3409 14.1389 16.083C14.1389 15.8252 14.2413 15.5779 14.4236 15.3955C14.606 15.2132 14.8533 15.1108 15.1111 15.1108H25.8056V11.2219H20.9444V7.33301H17.0556V11.2219H15.1111C13.8219 11.2219 12.5854 11.734 11.6738 12.6457C10.7622 13.5573 10.25 14.7938 10.25 16.083C10.25 17.3723 10.7622 18.6087 11.6738 19.5203C12.5854 20.432 13.8219 20.9441 15.1111 20.9441H22.8889C23.1467 20.9441 23.394 21.0465 23.5764 21.2289C23.7587 21.4112 23.8611 21.6585 23.8611 21.9163C23.8611 22.1742 23.7587 22.4215 23.5764 22.6038C23.394 22.7861 23.1467 22.8886 22.8889 22.8886H12.1944Z" fill="white"/></svg>