<svg class="curvedInputHover" width="456" height="109" viewBox="0 0 456 109" fill="none" xmlns="http://www.w3.org/2000/svg"><path fill-rule="evenodd" clip-rule="evenodd" d="M8.43237 15.6418L8.43368 15.6329C9.13435 10.8624 11.6904 6.56142 15.5459 3.66587C19.4004 0.77108 24.2419 -0.484754 29.0174 0.171545C161.062 18.2015 294.944 18.2017 426.988 0.172129C431.765 -0.488186 436.609 0.767202 440.464 3.66448C444.32 6.56264 446.874 10.8684 447.567 15.642L447.569 15.6507L455.81 72.9492C456.155 75.3147 456.029 77.7252 455.439 80.0419C454.85 82.3586 453.807 84.5357 452.373 86.4479C450.938 88.3601 449.139 89.9697 447.08 91.1839C445.02 92.3981 442.741 93.1929 440.374 93.5225L440.361 93.5243C299.448 112.831 156.562 112.831 15.6493 93.5243L15.6414 93.5232C13.2722 93.1954 10.9914 92.4019 8.9304 91.1885C6.86936 89.9751 5.06885 88.3658 3.6326 86.4534C2.19635 84.541 1.15274 82.3632 0.561897 80.0457C-0.0284018 77.7303 -0.155133 75.321 0.188963 72.9565C0.189283 72.9543 0.189603 72.9521 0.189923 72.9499L8.43237 15.6418Z" fill="url(#paint0_linear_1537_11426)"/><defs><linearGradient id="paint0_linear_1537_11426" x1="228" y1="0" x2="228" y2="75.3793" gradientUnits="userSpaceOnUse"><stop stop-color="#F0F1FF"/><stop offset="1" stop-color="#F0F1FF" stop-opacity="0"/></linearGradient></defs></svg>