<svg width="25" height="24" viewBox="0 0 25 24" fill="none" xmlns="http://www.w3.org/2000/svg"><path d="M6.18891 14.0029C6.20343 14.0357 6.21984 14.066 6.23751 14.0963C6.24572 14.114 6.25708 14.1323 6.26718 14.1487C6.2836 14.1815 6.30127 14.2131 6.31831 14.2447L6.41742 14.4113C6.43573 14.4423 6.4534 14.4726 6.47424 14.5029C6.50896 14.5622 6.54999 14.6203 6.58597 14.6796C6.60238 14.7042 6.61753 14.7288 6.63584 14.7535C6.70528 14.8614 6.7684 14.951 6.83595 15.0382C6.88393 15.1032 6.9319 15.1669 6.98367 15.2307C7.00071 15.2547 7.01965 15.2787 7.03732 15.3027L7.17683 15.4718C7.19388 15.4914 7.21092 15.5141 7.22923 15.5343C7.29109 15.6088 7.35674 15.6808 7.42239 15.754C7.42239 15.7553 7.42429 15.7565 7.42555 15.7584C7.50698 15.8607 7.59473 15.9516 7.69068 16.0324L7.6932 16.0349C7.7437 16.0867 7.79421 16.1378 7.84786 16.1883L7.91162 16.2495C7.98169 16.3152 8.05176 16.3802 8.12562 16.4433C8.12688 16.4433 8.12751 16.4446 8.12877 16.4452L8.16476 16.4768C8.22915 16.533 8.29417 16.5885 8.36045 16.6403L8.43936 16.7066C8.49301 16.7495 8.54856 16.7899 8.60348 16.8322L8.68934 16.8978C8.74804 16.942 8.81054 16.985 8.87051 17.0279C8.8926 17.0437 8.9147 17.0594 8.93742 17.074L8.95573 17.0885L9.13311 17.2046L9.20886 17.2551C9.30166 17.3145 9.39382 17.37 9.48599 17.4256C9.5125 17.4388 9.53901 17.4533 9.56363 17.4685C9.63181 17.5076 9.70251 17.5474 9.77132 17.5834C9.80919 17.6048 9.84833 17.6232 9.88747 17.6427C9.93482 17.6692 9.98405 17.6951 10.0346 17.7216C10.0484 17.726 10.0598 17.7305 10.0712 17.7368L10.0737 17.7343C10.0945 17.7437 10.1141 17.7538 10.1343 17.7639C10.21 17.8018 10.289 17.8378 10.371 17.8731C10.3862 17.8794 10.4026 17.8858 10.419 17.8946C10.5099 17.9344 10.6008 17.9722 10.6949 18.0089C10.7163 18.0152 10.739 18.0259 10.7611 18.0341C10.8464 18.0663 10.9341 18.0991 11.0212 18.1301L11.0528 18.1414C11.1494 18.1742 11.2447 18.2058 11.3432 18.2355C11.3659 18.2418 11.3892 18.25 11.4132 18.2563C11.5136 18.2866 11.6108 18.3226 11.7125 18.3415C18.1974 19.5176 20.0817 14.4618 20.0817 14.4618C18.4985 16.5134 15.6888 17.0544 13.028 16.4522C12.9295 16.4294 12.831 16.3979 12.7313 16.3688C12.5905 16.329 12.451 16.285 12.3128 16.2369L12.3728 16.2552L12.3336 16.2401C12.2478 16.211 12.1651 16.1788 12.0811 16.1466C12.0606 16.1379 12.0397 16.1299 12.0186 16.1227L12.0117 16.1208C11.9189 16.0835 11.8286 16.0456 11.739 16.0059C11.7194 15.9996 11.703 15.9907 11.6834 15.9831C11.5772 15.9369 11.472 15.8885 11.3678 15.838L11.4549 15.8765C11.4322 15.8664 11.4098 15.8555 11.388 15.8436C11.3286 15.8159 11.2693 15.7843 11.2112 15.7546C11.167 15.7337 11.1234 15.7114 11.0806 15.6877L11.0932 15.694C11.0219 15.6562 10.9505 15.6151 10.8786 15.5766C10.8571 15.5615 10.8325 15.5488 10.8079 15.535C10.7009 15.4728 10.5952 15.4084 10.491 15.3418L10.5307 15.3658C10.504 15.3493 10.4779 15.3318 10.4525 15.3134L10.4562 15.3159C10.3884 15.2742 10.3219 15.2304 10.2568 15.1846C10.2353 15.1707 10.2157 15.1556 10.1936 15.1404C10.1256 15.094 10.0587 15.046 9.99289 14.9965L10.008 15.0072C9.98153 14.9858 9.95312 14.9656 9.92472 14.9447C9.86916 14.9012 9.81298 14.8595 9.75743 14.8141L9.68294 14.7547C9.60356 14.6916 9.52568 14.6265 9.44938 14.5597L9.44874 14.559L9.2297 14.3602L9.16657 14.3008C9.11481 14.2485 9.06178 14.1986 9.00875 14.1468L8.94752 14.0837C8.88217 14.019 8.81839 13.9527 8.75625 13.8849L8.75246 13.8804L8.74173 13.8716C8.67489 13.7982 8.60902 13.7239 8.54415 13.6488C8.5271 13.6292 8.51132 13.6084 8.49364 13.5875L8.35035 13.4139C8.28575 13.3328 8.22262 13.2505 8.16097 13.1671L8.13572 13.1318C6.65983 11.1269 6.12578 8.36009 7.30687 6.09009L6.26403 7.40878C4.92259 9.32717 5.08862 11.8219 6.11442 13.859C6.13777 13.9088 6.16366 13.9556 6.18891 14.0029V14.0029Z" fill="#6C6F93"/><path d="M10.7074 11.24L10.7001 11.2295L10.6941 11.2216L10.7074 11.24Z" fill="black"/><path d="M11.4126 12.0675L11.4694 12.1243C11.5414 12.1938 11.6152 12.2613 11.6903 12.3289L11.6998 12.3371C11.7756 12.404 11.8608 12.4741 11.9485 12.5422L11.9618 12.5523C11.9832 12.5669 12.0015 12.5839 12.0224 12.5984C12.1108 12.6666 12.1998 12.7316 12.2926 12.7966L12.302 12.8023C12.3412 12.8307 12.3828 12.8566 12.427 12.8844C12.4447 12.8957 12.4649 12.9109 12.4838 12.9223C12.5507 12.9652 12.6164 13.0049 12.6839 13.046C12.6947 13.0504 12.7041 13.0561 12.7142 13.0605C12.771 13.0952 12.8329 13.1287 12.8922 13.159C12.9131 13.1716 12.9333 13.1811 12.9547 13.1931C12.997 13.2139 13.0387 13.236 13.0791 13.2575L13.0993 13.2663C13.1845 13.308 13.2716 13.3471 13.3569 13.3856C13.3783 13.3938 13.3966 13.4007 13.4149 13.4096C13.485 13.4399 13.5563 13.4689 13.6264 13.4954C13.658 13.5062 13.6876 13.5188 13.7173 13.5283C13.7817 13.5522 13.8492 13.5743 13.913 13.5964L14.0014 13.6248C14.0935 13.6533 14.187 13.6905 14.2848 13.7056C19.2926 14.5301 20.4516 10.6939 20.4516 10.6939C19.4081 12.1881 17.3887 12.9002 15.2367 12.344C15.1293 12.3169 15.0228 12.2864 14.9173 12.2525L14.9533 12.2626C14.923 12.2544 14.8965 12.2449 14.8675 12.2361C14.8018 12.2133 14.7343 12.1913 14.6705 12.1679L14.5796 12.1338C14.5089 12.1054 14.4369 12.0789 14.3681 12.0486C14.3467 12.0391 14.3271 12.0328 14.3107 12.0233C14.2223 11.9836 14.1333 11.9444 14.0468 11.9028L13.9168 11.8352L13.8417 11.7973C13.7836 11.767 13.7299 11.7355 13.6744 11.7033C13.6602 11.6966 13.6465 11.689 13.6333 11.6806L13.6352 11.6812C13.5683 11.6395 13.4989 11.5991 13.4345 11.5568C13.413 11.5448 13.3935 11.5303 13.3733 11.5177L13.242 11.4325C13.1511 11.3694 13.0621 11.3018 12.9718 11.2362C12.9516 11.2179 12.932 11.2027 12.9124 11.1863C11.9662 10.4458 11.22 9.43391 10.8659 8.28817C10.4928 7.09699 10.5749 5.76124 11.2194 4.67737L10.4272 5.79344C9.45441 7.18284 9.50933 9.04 10.2668 10.5096C10.4051 10.781 10.5452 11.0102 10.6999 11.2286C10.8438 11.4344 11.0029 11.6755 11.1948 11.8409C11.263 11.9185 11.3362 11.9924 11.4126 12.0675V12.0675Z" fill="#6C6F93"/><path d="M6.83911 15.0419L6.83659 15.0381L6.83217 15.0324L6.83911 15.0419ZM9.46386 14.5723L9.47017 14.5767L9.47143 14.5786L9.46386 14.5723Z" fill="black"/><path d="M13.9282 4.58518C13.3543 5.42286 13.2994 6.46317 13.6946 7.3867C14.1144 8.36768 14.9723 9.13782 15.9722 9.50268C16.0132 9.51847 16.053 9.53172 16.0953 9.54687L16.1508 9.56392C16.2089 9.58222 16.2676 9.60369 16.3276 9.61694C19.0932 10.1478 19.8418 8.20418 20.0432 7.91822C19.3848 8.8588 18.2807 9.08479 16.926 8.75717C16.8082 8.72844 16.6923 8.69261 16.5788 8.64985L16.5997 8.6568C16.4585 8.60794 16.3202 8.55103 16.1856 8.48636L16.2095 8.49709C15.9507 8.37084 15.7285 8.23449 15.5221 8.07793C14.3113 7.16261 13.5626 5.4197 14.353 4L13.9282 4.58518Z" fill="#6C6F93"/></svg>