<svg class="curvedInputBg" width="445" height="97" viewBox="0 0 445 97" fill="none" xmlns="http://www.w3.org/2000/svg"><path fill-rule="evenodd" clip-rule="evenodd" d="M9.3651 11.5007C9.83594 8.29498 11.5535 5.40494 14.1441 3.45936C16.7347 1.51379 19.9887 0.670093 23.1982 1.11185C155.784 19.216 290.216 19.216 422.802 1.11185C426.011 0.6675 429.265 1.51042 431.855 3.4567C434.444 5.40298 436.159 8.29462 436.625 11.5007L444.868 68.812C445.099 70.3946 445.015 72.0073 444.62 73.5572C444.225 75.1071 443.528 76.5636 442.568 77.8429C441.608 79.1222 440.405 80.199 439.028 81.0112C437.65 81.8235 436.125 82.3551 434.541 82.5756C294.169 101.808 151.831 101.808 11.4589 82.5756C9.87405 82.3563 8.34829 81.8255 6.96952 81.0138C5.59076 80.2021 4.38624 79.1255 3.42538 77.8461C2.46453 76.5667 1.76634 75.1098 1.37104 73.5592C0.975749 72.0087 0.891171 70.3953 1.12218 68.812L9.3651 11.5007Z" fill="white" stroke="url(#paint0_linear_1829_13983)"/><defs><linearGradient id="paint0_linear_1829_13983" x1="2" y1="50" x2="446" y2="50" gradientUnits="userSpaceOnUse"><stop stop-color="#BDF3FE"/><stop offset="1" stop-color="#D5C7F9"/></linearGradient></defs></svg>