<svg width="25" height="24" viewBox="0 0 25 24" fill="none" xmlns="http://www.w3.org/2000/svg"><path d="M17.9997 9.18591C17.8081 9.12023 17.6149 9.05942 17.4202 9.00349C17.4525 8.87245 17.4823 8.74083 17.5097 8.60864C17.9484 6.48143 17.6616 4.76776 16.6822 4.20364C15.7432 3.66258 14.2075 4.22672 12.6565 5.57517C12.5037 5.70835 12.3543 5.84532 12.2083 5.98608C12.1106 5.89251 12.0112 5.80076 11.9101 5.71085C10.2846 4.26892 8.65528 3.66135 7.67696 4.22713C6.73887 4.76968 6.461 6.38077 6.85589 8.39672C6.89518 8.59636 6.93953 8.7949 6.98893 8.99234C6.75839 9.05776 6.53574 9.12748 6.32272 9.20166C4.41705 9.86542 3.19998 10.9058 3.19998 11.9848C3.19998 13.0994 4.50643 14.2173 6.49144 14.895C6.65239 14.9497 6.81464 15.0004 6.97817 15.047C6.92506 15.2597 6.87792 15.4737 6.83676 15.689C6.46028 17.67 6.75432 19.2429 7.68994 19.7821C8.65631 20.3388 10.2782 19.7665 11.8576 18.3873C11.9824 18.2783 12.1076 18.163 12.2332 18.0414C12.3912 18.1937 12.5534 18.3416 12.7198 18.4849C14.2496 19.8001 15.7604 20.3312 16.6953 19.7906C17.6608 19.2322 17.9745 17.5425 17.5671 15.4866C17.536 15.3296 17.5001 15.1694 17.4592 15.0059C17.5731 14.9723 17.6847 14.9375 17.7939 14.9015C19.8574 14.2185 21.2 13.1143 21.2 11.9848C21.2 10.9019 19.9437 9.85452 17.9997 9.18591ZM13.1613 6.15474C14.4903 4.99927 15.7323 4.5431 16.2982 4.86917C16.9009 5.21649 17.1353 6.61698 16.7566 8.45363C16.7318 8.57327 16.7048 8.69244 16.6757 8.81114C15.8827 8.63158 15.0787 8.50468 14.2689 8.43127C13.805 7.76541 13.2967 7.13157 12.7474 6.53406C12.8822 6.40421 13.0202 6.27777 13.1613 6.15474ZM8.51476 12.9066C8.67755 13.2208 8.84765 13.5309 9.02508 13.8372C9.20608 14.1494 9.39445 14.4573 9.5902 14.7607C9.03304 14.7003 8.47936 14.6114 7.93133 14.4942C8.09025 13.9815 8.28605 13.4486 8.51476 12.9066ZM8.51389 11.0998C8.28997 10.5692 8.09838 10.0475 7.94193 9.54373C8.4555 9.42889 9.00314 9.33506 9.57379 9.26382C9.38278 9.56146 9.19884 9.86346 9.02197 10.1698C8.84539 10.4758 8.67603 10.7858 8.51389 11.0998ZM8.92264 12.0033C9.15956 11.5106 9.41477 11.0274 9.68826 10.5535V10.5537C9.96149 10.0801 10.2524 9.61738 10.561 9.16553C11.0963 9.1251 11.6452 9.10393 12.2001 9.10393C12.7574 9.10393 13.307 9.12526 13.8421 9.16601C14.1474 9.61682 14.4365 10.078 14.7094 10.5495C14.9837 11.0219 15.2423 11.5029 15.4854 11.9924C15.2449 12.4866 14.9871 12.9719 14.7119 13.448H14.7119C14.4392 13.9213 14.1514 14.3853 13.8483 14.84C13.3143 14.8782 12.7624 14.8978 12.2 14.8978C11.6399 14.8978 11.095 14.8804 10.5703 14.8464C10.2595 14.3929 9.96632 13.9282 9.69057 13.4523C9.41632 12.9792 9.16034 12.4962 8.92263 12.0033H8.92264ZM15.378 13.8318C15.5591 13.5181 15.7331 13.2005 15.9 12.879C16.1288 13.3955 16.3305 13.9235 16.5045 14.461C15.9501 14.5854 15.3897 14.6809 14.8254 14.7469C15.0156 14.4456 15.1999 14.1405 15.378 13.8318H15.378ZM15.8927 11.1004C15.7264 10.785 15.5538 10.4731 15.3749 10.1646C15.1989 9.86092 15.0165 9.56114 14.8276 9.26526C15.4019 9.33769 15.9522 9.43398 16.4688 9.55185C16.303 10.0774 16.1107 10.5942 15.8927 11.1004H15.8927ZM12.2086 7.08345C12.583 7.4912 12.9365 7.91759 13.2679 8.36098C12.5591 8.32752 11.85 8.32736 11.1404 8.36051C11.4902 7.89978 11.8484 7.47175 12.2086 7.08345ZM8.0622 4.89201C8.66445 4.54373 9.99599 5.04035 11.3995 6.28532C11.4892 6.3649 11.5793 6.44823 11.6695 6.53442C11.1171 7.13182 10.6048 7.76515 10.1362 8.43023C9.32833 8.50262 8.526 8.6272 7.73424 8.80318C7.68833 8.61956 7.64709 8.43486 7.61053 8.2491V8.24917C7.2722 6.52187 7.49685 5.21898 8.0622 4.89201ZM7.18449 14.307C7.03528 14.2644 6.88716 14.218 6.74014 14.1681C5.97787 13.9285 5.26623 13.5508 4.64076 13.0539C4.46157 12.931 4.30949 12.7728 4.19393 12.5889C4.07837 12.405 4.00178 12.1994 3.9689 11.9848C3.9689 11.3301 4.94611 10.4948 6.57591 9.9271C6.78047 9.85616 6.98698 9.79124 7.19543 9.73235C7.43743 10.5079 7.73051 11.2666 8.07274 12.0035C7.72621 12.751 7.42948 13.5205 7.18449 14.307ZM11.3516 17.8088C10.763 18.3489 10.08 18.7761 9.33663 19.0691H9.33655C9.14056 19.1628 8.92741 19.2154 8.71027 19.2235C8.49314 19.2317 8.27664 19.1953 8.07415 19.1165C7.50632 18.7894 7.27037 17.5264 7.59228 15.8324C7.63056 15.6322 7.67439 15.4331 7.72376 15.2353C8.52345 15.4069 9.33388 15.5241 10.1495 15.5861C10.6221 16.255 11.1383 16.8921 11.6946 17.4933C11.5828 17.6013 11.4685 17.7064 11.3516 17.8088ZM12.2299 16.9405C11.8654 16.5476 11.5019 16.113 11.1469 15.6456C11.4915 15.6592 11.8425 15.666 12.2 15.666C12.5669 15.666 12.9291 15.658 13.2866 15.6419C12.9568 16.0925 12.6041 16.526 12.2299 16.9405V16.9405ZM16.8993 18.0094C16.8827 18.2258 16.8218 18.4365 16.7205 18.6286C16.6191 18.8206 16.4794 18.9898 16.31 19.1257C15.7427 19.4538 14.5296 19.0274 13.2214 17.9026C13.0714 17.7737 12.9205 17.6363 12.7687 17.4904C13.3142 16.887 13.8183 16.2475 14.2775 15.5763C15.0978 15.5072 15.9123 15.3817 16.7154 15.2009C16.752 15.3489 16.7845 15.4939 16.8128 15.6359C16.9872 16.4151 17.0165 17.2196 16.8993 18.0094V18.0094ZM17.5521 14.1724H17.552C17.4537 14.2049 17.3527 14.2363 17.2497 14.2668C16.998 13.4876 16.6935 12.7265 16.3382 11.9886C16.6801 11.2607 16.9727 10.5107 17.2143 9.74364C17.3984 9.79696 17.5771 9.8531 17.7494 9.91236C19.4151 10.4851 20.4311 11.3322 20.4311 11.9848C20.4311 12.68 19.3338 13.5826 17.5521 14.1724V14.1724Z" fill="#6C6F93"/><path d="M12.2 10.379C12.5179 10.379 12.8287 10.4732 13.093 10.6497C13.3573 10.8261 13.5634 11.0769 13.685 11.3703C13.8067 11.6638 13.8385 11.9867 13.7765 12.2982C13.7145 12.6097 13.5614 12.8958 13.3366 13.1204C13.1118 13.345 12.8254 13.498 12.5136 13.5599C12.2018 13.6219 11.8786 13.5901 11.5849 13.4685C11.2912 13.347 11.0401 13.1411 10.8635 12.8771C10.6869 12.613 10.5926 12.3025 10.5927 11.9849C10.5927 11.559 10.762 11.1505 11.0634 10.8494C11.3649 10.5482 11.7737 10.379 12.2 10.379Z" fill="#6C6F93"/></svg>