<svg width="24" height="24" viewBox="0 0 24 24" fill="none" xmlns="http://www.w3.org/2000/svg"><path d="M6.10783 17.8918C5.33286 17.1189 4.71828 16.2004 4.2994 15.1892C3.88052 14.1779 3.6656 13.0939 3.667 11.9993C3.667 7.39685 7.39783 3.66602 12.0003 3.66602C16.6028 3.66602 20.3337 7.39685 20.3337 11.9993C20.3337 16.6018 16.6028 20.3327 12.0003 20.3327H3.667L6.10783 17.8918ZM8.667 12.8327C8.667 13.7167 9.01819 14.5646 9.64331 15.1897C10.2684 15.8148 11.1163 16.166 12.0003 16.166C12.8844 16.166 13.7322 15.8148 14.3574 15.1897C14.9825 14.5646 15.3337 13.7167 15.3337 12.8327H8.667Z" fill="#B3B8D0"/></svg>