<svg width="794" height="697" viewBox="0 0 794 697" fill="none" xmlns="http://www.w3.org/2000/svg">
<path fill-rule="evenodd" clip-rule="evenodd" d="M542.099 114.107C541.586 122.021 547.224 128.994 555.071 130.326C649.908 146.427 729.071 174.367 780.242 198.732C786.758 201.834 790.024 209.131 788.204 216.102L746.626 375.314C744.657 382.854 748.674 390.635 755.902 393.585C765.25 397.401 774.506 401.42 783.663 405.643C791.38 409.203 794.503 418.417 790.732 426.026L681.479 646.468C677.708 654.077 668.478 657.191 660.701 653.761C528.707 595.556 345.107 601.451 179.7 693.128C173.031 696.825 164.622 695.319 159.848 689.412L4.6359 497.415C-0.138987 491.508 0.126555 482.996 5.43012 477.529C36.8155 445.176 82.2823 406.034 139.662 367.153C146.756 362.346 148.715 352.747 143.942 345.67L56.8769 216.553C52.7735 210.468 53.5499 202.327 58.8995 197.266C99.3989 158.956 162.677 111.206 239.422 72.6395C318.44 32.9298 421.13 -1.73267 533.929 1.76277C542.437 2.02644 548.889 9.33536 548.341 17.796L542.099 114.107Z" fill="url(#paint0_linear_701_5820)" stroke="url(#paint1_linear_701_5820)" stroke-width="2"/>
<defs>
<linearGradient id="paint0_linear_701_5820" x1="211.971" y1="488.06" x2="-4.02882" y2="446.06" gradientUnits="userSpaceOnUse">
<stop stop-color="#D0C2FF" stop-opacity="0.6"/>
<stop offset="1" stop-color="#D0C2FF" stop-opacity="0"/>
</linearGradient>
<linearGradient id="paint1_linear_701_5820" x1="311.308" y1="37.7981" x2="64.4713" y2="580.06" gradientUnits="userSpaceOnUse">
<stop stop-color="#D0C2FF"/>
<stop offset="1" stop-color="#D0C2FF" stop-opacity="0"/>
</linearGradient>
</defs>
</svg>
