<svg width="32" height="32" viewBox="0 0 32 32" fill="none" xmlns="http://www.w3.org/2000/svg"><path d="M16.0001 4.88867C9.86123 4.88867 4.88901 9.86089 4.88901 15.9998C4.88775 18.3323 5.62102 20.606 6.9848 22.4983C8.34858 24.3906 10.2736 25.8054 12.4868 26.542C13.0423 26.6387 13.2501 26.3053 13.2501 26.0131C13.2501 25.7498 13.2357 24.8753 13.2357 23.9442C10.4446 24.4587 9.72234 23.2642 9.50012 22.6387C9.37456 22.3187 8.83345 21.3331 8.36123 21.0687C7.97234 20.8609 7.41679 20.3464 8.34679 20.3331C9.22234 20.3187 9.84679 21.1387 10.0557 21.472C11.0557 23.152 12.6535 22.6798 13.2912 22.3887C13.389 21.6665 13.6801 21.1809 14.0001 20.9031C11.5279 20.6253 8.94456 19.6665 8.94456 15.4165C8.94456 14.2076 9.37456 13.2087 10.0835 12.4298C9.97234 12.152 9.58345 11.0131 10.1946 9.48534C10.1946 9.48534 11.1246 9.19423 13.2501 10.6253C14.1546 10.3743 15.0892 10.2479 16.0279 10.2498C16.9723 10.2498 17.9168 10.3742 18.8057 10.6242C20.9301 9.17978 21.8612 9.48645 21.8612 9.48645C22.4723 11.0142 22.0835 12.1531 21.9723 12.4309C22.6801 13.2087 23.1112 14.1942 23.1112 15.4165C23.1112 19.6809 20.5146 20.6253 18.0423 20.9031C18.4446 21.2498 18.7923 21.9165 18.7923 22.9587C18.7923 24.4442 18.7779 25.6387 18.7779 26.0142C18.7779 26.3053 18.9868 26.652 19.5423 26.5409C21.7479 25.7962 23.6645 24.3787 25.0222 22.4877C26.38 20.5968 27.1106 18.3277 27.1112 15.9998C27.1112 9.86089 22.139 4.88867 16.0001 4.88867Z" fill="#6C6F93"/></svg>